<?xml version="1.0" encoding="UTF-8"?>
<svg width="67px" height="59px" viewBox="0 0 67 59" version="1.1" xmlns="http://www.w3.org/2000/svg" xmlns:xlink="http://www.w3.org/1999/xlink">
    <title>数据看板</title>
    <g id="页面-1" stroke="none" stroke-width="1" fill="none" fill-rule="evenodd">
        <path d="M6.876,26.324 L8.028,25.496 L8.928,26.324 L20.556,26.324 L23.328,22.292 L25.344,26.324 L30.816,26.324 L26.496,17.684 L30.888,11.312 L31.536,6.56 L32.58,6.56 L33.048,3.14 L25.992,3.14 L26.964,0.404 L20.484,0.404 L21.168,1.232 L18.072,9.98 L23.544,9.98 L24.768,6.56 L26.064,6.56 L25.416,11.312 L25.416,11.348 L24.228,13.076 L23.364,11.348 L17.892,11.348 L21.024,17.684 L15.336,25.964 L11.844,22.724 L15.264,20.24 L15.732,16.82 L17.136,16.82 L17.604,13.4 L16.2,13.4 L16.38,12.248 L11.592,12.248 L11.412,13.4 L7.992,13.4 L8.172,12.248 L3.384,12.248 L3.204,13.4 L1.872,13.4 L1.404,16.82 L2.736,16.82 L2.268,20.24 L4.968,22.724 L0.036,26.324 L6.876,26.324 Z M6.156,12.032 L7.92,9.296 L7.524,12.032 L12.312,12.032 L12.672,9.548 L13.68,12.032 L17.784,12.032 L16.128,7.928 L18.36,7.928 L18.864,4.508 L13.392,4.508 L13.968,0.404 L8.388,0.404 L9,1.736 L8.604,4.508 L3.132,4.508 L2.628,7.928 L4.68,7.928 L2.052,12.032 L6.156,12.032 Z M18.252,3.824 L19.332,1.088 L15.228,1.088 L14.148,3.824 L18.252,3.824 Z M7.992,3.824 L7.704,1.088 L3.6,1.088 L3.888,3.824 L7.992,3.824 Z M8.82,19.952 L7.308,18.548 L7.524,16.82 L10.944,16.82 L10.728,18.548 L8.82,19.952 Z M38.736,26.288 C39.432,26.288 40.044,26.066 40.572,25.622 C41.1,25.178 41.412,24.608 41.508,23.912 L41.508,23.912 L42.588,16.064 L44.136,15.596 L44.676,11.852 L43.128,12.32 L43.74,7.964 L45.324,7.964 L45.792,4.796 L44.172,4.796 L44.784,0.476 L38.124,0.476 L39.024,1.52 L38.556,4.796 L36.432,4.796 L35.964,7.964 L38.124,7.964 L37.26,14.084 L35.064,14.732 L34.524,18.512 L36.72,17.864 L36,23.048 L33.228,26.288 L38.736,26.288 Z M47.844,26.252 L51.012,9.512 L64.908,9.512 L66.096,1.088 L47.376,1.088 L42.66,26.252 L47.844,26.252 Z M60.48,6.668 L51.912,6.668 L52.272,4.292 L60.84,4.292 L60.48,6.668 Z M62.424,25.64 L63.72,16.388 L59.724,16.388 L60.012,14.408 L64.368,14.408 L64.8,11.24 L60.444,11.24 L60.624,10.124 L55.692,10.124 L55.512,11.24 L51.12,11.24 L50.688,14.408 L55.08,14.408 L54.792,16.388 L50.256,16.388 L48.96,25.64 L62.424,25.64 Z M58.356,22.688 L54.036,22.688 L54.468,19.592 L58.788,19.592 L58.356,22.688 Z M27.756,58.324 L29.736,44.392 L12.96,44.392 L13.788,43.348 L30.924,43.348 L31.32,40.612 L15.984,40.612 L16.812,39.604 L30.78,39.604 L31.14,36.868 L19.008,36.868 L20.16,35.428 L32.076,35.14 L32.472,32.404 L3.636,33.088 L3.24,35.824 L11.808,35.644 L10.8,36.868 L3.78,36.868 L3.42,39.604 L8.604,39.604 L7.776,40.612 L2.592,40.612 L2.196,43.348 L5.58,43.348 L0.648,49.504 L4.068,49.504 L2.808,58.324 L27.756,58.324 Z M23.004,48.352 L10.368,48.352 L10.548,47.128 L23.184,47.128 L23.004,48.352 Z M22.5,52.024 L9.864,52.024 L10.044,50.764 L22.68,50.764 L22.5,52.024 Z M21.996,55.66 L9.36,55.66 L9.54,54.4 L22.176,54.4 L21.996,55.66 Z M41.724,58.324 L44.316,40.036 L47.196,40.036 L47.664,36.616 L44.784,36.616 L45.396,32.404 L39.168,32.404 L39.96,33.448 L39.492,36.616 L36.18,36.616 L35.712,40.036 L39.024,40.036 L36.432,58.324 L41.724,58.324 Z M55.44,58.252 L57.708,54.616 L59.724,58.216 L64.656,58.216 L61.02,50.512 L64.152,46.012 L65.016,39.712 L53.964,39.712 L54.612,36.472 L65.556,36.004 L66.024,32.584 L50.292,33.052 L45.396,58.252 L50.291,58.252 L55.44,58.252 Z M35.604,57.028 L38.448,41.152 L36.18,41.152 L33.336,57.028 L35.604,57.028 Z M45.504,54.976 L46.836,41.224 L44.568,41.224 L43.236,54.976 L45.504,54.976 Z M50.292,58.252 L53.316,42.988 L59.796,42.988 L59.436,45.724 L58.284,47.524 L57.384,45.472 L57.528,44.464 L53.28,44.464 L52.92,46.948 L54.864,51.448 L50.292,58.252 Z" id="数据看板" fill="#666666" fill-rule="nonzero"></path>
    </g>
</svg>