<?xml version="1.0" encoding="UTF-8"?>
<svg width="118px" height="118px" viewBox="0 0 118 118" version="1.1" xmlns="http://www.w3.org/2000/svg" xmlns:xlink="http://www.w3.org/1999/xlink">
    <title>编组 2</title>
    <defs>
        <circle id="path-1" cx="59" cy="59" r="59"></circle>
        <linearGradient x1="28.0226489%" y1="19.8244885%" x2="71.9773511%" y2="82.2268997%" id="linearGradient-3">
            <stop stop-color="#45E1FF" offset="0%"></stop>
            <stop stop-color="#21C0FD" offset="100%"></stop>
        </linearGradient>
    </defs>
    <g id="页面-1" stroke="none" stroke-width="1" fill="none" fill-rule="evenodd">
        <g id="我的备份-4" transform="translate(-24.000000, -99.000000)">
            <g id="形状结合" transform="translate(24.000000, 99.000000)">
                <mask id="mask-2" fill="white">
                    <use xlink:href="#path-1"></use>
                </mask>
                <circle stroke="#CBEAF4" stroke-width="0.694444444" cx="59" cy="59" r="58.6527778"></circle>
                <g id="编组-24" mask="url(#mask-2)">
                    <g transform="translate(26.818182, 32.181818)">
                        <path d="M52.1414141,37.0959667 C58.8915611,37.0959667 64.3636364,42.568042 64.3636364,49.3181889 L64.3636364,97.0818182 L0,97.0818182 L0,49.3181889 C-8.26654585e-16,42.568042 5.47207528,37.0959667 12.2222222,37.0959667 L52.1414141,37.0959667 Z M32.1818182,0 C41.0685819,0 48.2727273,7.13724069 48.2727273,15.9414733 C48.2727273,24.7457058 41.0685819,31.8829465 32.1818182,31.8829465 C23.2950545,31.8829465 16.0909091,24.7457058 16.0909091,15.9414733 C16.0909091,7.13724069 23.2950545,0 32.1818182,0 Z" id="形状结合" stroke="none" fill="url(#linearGradient-3)" fill-rule="evenodd"></path>
                        <path d="M27.3545455,23.0636364 C28.9636364,24.1363636 30.5727273,24.6727273 32.1818182,24.6727273 C33.7909091,24.6727273 35.4,24.1363636 37.0090909,23.0636364" id="路径-4" stroke="#FFFFFF" stroke-width="3" fill="none" stroke-linecap="round" stroke-linejoin="round"></path>
                    </g>
                </g>
            </g>
        </g>
    </g>
</svg>
